Coordinates
version=1
nRows=11
nColumns=40
inDegrees=yes

Units are S.I. units (second, meters, Newtons, ...)
Angles are in degrees.

endheader
time	pelvis_tilt	pelvis_list	pelvis_rotation	pelvis_tx	pelvis_ty	pelvis_tz	hip_flexion_r	hip_adduction_r	hip_rotation_r	knee_angle_r	knee_angle_r_beta	ankle_angle_r	subtalar_angle_r	mtp_angle_r	hip_flexion_l	hip_adduction_l	hip_rotation_l	knee_angle_l	knee_angle_l_beta	ankle_angle_l	subtalar_angle_l	mtp_angle_l	lumbar_extension	lumbar_bending	lumbar_rotation	arm_flex_r	arm_add_r	arm_rot_r	elbow_flex_r	pro_sup_r	wrist_flex_r	wrist_dev_r	arm_flex_l	arm_add_l	arm_rot_l	elbow_flex_l	pro_sup_l	wrist_flex_l	wrist_dev_l
     23.35064286	     -4.79175503	     -1.87342689	     24.83709222	      0.96605429	      0.91642583	      0.52278949	      9.02597056	      0.78126627	    -22.03792230	     25.19923637	     25.19923637	     20.67468587	    -15.45102778	      1.78504738	     27.11346664	     -3.20525956	      9.03333561	     20.33791364	     20.33791364	      3.00414502	     -3.33686012	      3.84103944	     -9.68280290	      2.32294684	      6.69069061	     65.76536749	    -23.56734232	      0.68755052	     82.71179607	     44.52998057	      0.00000000	      0.00000000	    -33.04774740	    -10.34622772	     30.11583482	     35.56379163	     43.59171102	      0.00000000	      0.00000000
     23.37628571	     -4.79307038	     -1.93039342	     25.24983541	      0.96445578	      0.91660357	      0.51831817	      8.63641095	      0.63800164	    -22.37338274	     25.15403706	     25.15403706	     20.74922788	    -15.41161112	      2.08223953	     26.95140734	     -2.88246918	      9.56289511	     20.64519415	     20.64519415	      3.31705522	     -3.79711048	      3.54553310	     -9.92360126	      2.42681843	      7.02765024	     65.84297244	    -24.25822077	      1.12870902	     84.83080545	     44.48615081	      0.00000000	      0.00000000	    -32.51547192	    -10.71330114	     29.84704853	     35.61328527	     43.74095403	      0.00000000	      0.00000000
     23.40192857	     -4.96239805	     -1.99057622	     25.47625196	      0.96284937	      0.91689333	      0.51392006	      8.40161093	      0.45225257	    -22.52038587	     25.02967239	     25.02967239	     20.64430229	    -15.45183109	      2.17039522	     26.87788707	     -2.61263670	      9.70215248	     20.80166764	     20.80166764	      3.62358041	     -3.88616923	      3.41770870	     -9.82138232	      2.42883014	      7.12104981	     65.97412200	    -24.14322295	      1.16603346	     84.86547415	     44.48643673	      0.00000000	      0.00000000	    -32.17807703	    -10.83535432	     29.79700796	     35.66662745	     43.75633405	      0.00000000	      0.00000000
     23.42757143	     -5.06126828	     -2.10897400	     25.62686717	      0.96119990	      0.91742014	      0.50951967	      8.03012388	      0.37808737	    -22.68443536	     24.71339517	     24.71339517	     20.48421275	    -15.28152173	      2.26627456	     26.85162793	     -2.40012331	      9.91701169	     21.12184987	     21.12184987	      3.87756100	     -4.30206443	      3.43973715	     -9.82265790	      2.55289433	      7.26146733	     66.19698743	    -24.07403533	      1.21796792	     84.85719010	     44.49093068	      0.00000000	      0.00000000	    -31.71396341	    -11.00282686	     29.74069423	     35.72838077	     43.78160127	      0.00000000	      0.00000000
     23.45321429	     -5.25538671	     -2.20146279	     25.64039138	      0.95940278	      0.91794004	      0.50511138	      7.87689830	      0.18729076	    -22.68532767	     24.63497999	     24.63497999	     20.28952602	    -15.21622707	      2.34405912	     26.78608189	     -2.20079327	      9.93749012	     21.19458168	     21.19458168	      4.06893303	     -4.39869424	      3.38429221	     -9.72967373	      2.63541395	      7.33420106	     66.23280305	    -24.01735450	      1.24798666	     84.85262711	     44.49090867	      0.00000000	      0.00000000	    -31.56253526	    -11.00055428	     29.72771486	     35.76921399	     43.78691219	      0.00000000	      0.00000000
     23.47885714	     -5.49187700	     -2.25742833	     25.56451410	      0.95752523	      0.91846144	      0.50074864	      7.67973575	     -0.03449988	    -22.70249493	     24.38620581	     24.38620581	     20.02967824	    -15.04755330	      2.45593094	     26.80373231	     -1.94607134	      9.94488766	     21.39342101	     21.39342101	      4.26777289	     -4.66576652	      3.35095725	     -9.65192623	      2.62728444	      7.51359297	     66.31278933	    -23.85971102	      1.33460552	     84.82515149	     44.49042787	      0.00000000	      0.00000000	    -31.19450547	    -11.02237762	     29.69484024	     35.86070116	     43.79845870	      0.00000000	      0.00000000
     23.50450000	     -5.58545448	     -2.34562553	     25.41939031	      0.95546309	      0.91923193	      0.49631026	      7.11823627	     -0.17443929	    -23.09520133	     23.68717742	     23.68717742	     19.78447653	    -14.02204068	      1.88113066	     26.77288974	     -1.55320431	     10.87631406	     21.81178927	     21.81178927	      4.64468431	     -6.53140074	      5.21087855	     -9.73141356	      2.75422221	      7.73102598	     66.81143679	    -23.93902302	      2.05931960	     83.92736881	     44.52869214	      0.00000000	      0.00000000	    -30.65018748	    -11.08748246	     29.99985466	     35.77022628	     43.84873188	      0.00000000	      0.00000000
     23.53014286	     -5.77019053	     -2.49592587	     25.15204445	      0.95337197	      0.91954633	      0.49211852	      6.88880892	     -0.26735337	    -23.05726230	     23.32381263	     23.32381263	     19.52234675	    -13.60734863	      1.66534931	     26.92125705	     -1.43032415	     10.88613694	     22.28172129	     22.28172129	      5.07534148	     -6.91855909	      5.73209097	     -9.71012382	      2.88156135	      7.86666253	     67.03703196	    -23.76692854	      2.29721006	     83.67943464	     44.54750976	      0.00000000	      0.00000000	    -30.46223915	    -11.13551682	     30.15975144	     35.77539239	     43.87837193	      0.00000000	      0.00000000
     23.55578571	     -5.98242928	     -2.55116728	     24.78259176	      0.95126389	      0.91971255	      0.48790113	      6.73112989	     -0.48381095	    -22.85540593	     23.12596934	     23.12596934	     19.40781990	    -13.34930132	      1.64948901	     26.97172917	     -1.26257705	     10.71392636	     22.61287033	     22.61287033	      5.33579131	     -7.31821010	      5.74631699	     -9.70095384	      2.90799861	      8.01659224	     67.13579177	    -23.62038782	      2.38739619	     83.64180995	     44.54938067	      0.00000000	      0.00000000	    -30.32441876	    -11.18131513	     30.17335530	     35.79817760	     43.88673360	      0.00000000	      0.00000000
     23.58142857	     -6.17997419	     -2.65156547	     24.46086087	      0.94899592	      0.91974383	      0.48363670	      6.64350261	     -0.67128144	    -22.69275720	     23.03625555	     23.03625555	     19.25432700	    -13.17057350	      1.67751524	     26.94965850	     -1.13842838	     10.62402558	     22.76780437	     22.76780437	      5.66189689	     -7.56764074	      5.66103518	     -9.69082613	      2.99305134	      7.99685515	     67.18218223	    -23.59385416	      2.40861187	     83.62896791	     44.55018228	      0.00000000	      0.00000000	    -30.25859143	    -11.24983099	     30.16769640	     35.79734584	     43.89019237	      0.00000000	      0.00000000
     23.60707143	     -6.30877793	     -2.70518178	     23.93849340	      0.94687446	      0.91960400	      0.47945686	      6.37974060	     -0.85147334	    -22.42953129	     22.76962765	     22.76962765	     19.24487253	    -12.66350524	      1.55803268	     27.10730960	     -1.00271487	     10.45730632	     23.51147061	     23.51147061	      6.02103135	     -8.33534774	      5.71477822	     -9.74417824	      3.07097362	      8.21025683	     67.38445373	    -23.42897094	      2.54724463	     83.53830873	     44.55330196	      0.00000000	      0.00000000	    -30.19755148	    -11.37118387	     30.19756539	     35.76934435	     43.89686478	      0.00000000	      0.00000000
